<?xml version="1.0" encoding="UTF-8"?>
<svg id="Graphic_Elements" data-name="Graphic Elements" xmlns="http://www.w3.org/2000/svg" viewBox="0 0 1237.5 1228.67">
  <defs>
    <style>
      .cls-1 {
        fill: #007dd4;
        stroke-width: 0px;
      }
    </style>
  </defs>
  <path class="cls-1" d="m1085.66,584.63c-.63.11-1.25.31-1.89.33-6.01.22-12.03.35-18.04.65-1.42.07-3.27.31-4.13,1.11-2.08,1.93-4.53,2.24-7.3,2.38-3.79.18-4.4.66-6.52,4.22,4.75,2.36,10.01.74,14.83,1.59-.6.41-1.29.9-2.63,1.82,2.5.79,4.36,1.8,6.3,1.92,5.36.34,10.75.3,16.13.42,1.5.03,3.01-.03,4.48.16,3.83.5,7.34-.46,11.3-1.43-.78-.85-1.29-1.41-2.11-2.31h8.93c-1.31,4.16-1.66,4.43-6.13,4.56-3.74.11-7.49.17-11.23.36-1.33.07-2.79.22-3.93.75-4.47,2.06-9.21,2.12-14.05,1.81-.74-.05-1.65-.43-2.2-.19-4.3,1.94-8.91.56-13.3,1.12-3.13.4-6.13,1.54-9.19,2.35,0,.3.02.61.03.91,1.61.31,3.22.65,4.84.94,6.25,1.12,12.31,2.88,18.95,2.37,6.26-.48,12.6-.1,19.78-.1-1.29.6-1.85,1.05-2.46,1.11-6.27.61-12.55,1.22-18.84,1.69-1.93.15-3.9-.16-5.85-.23-2.25-.08-4.53-.38-6.74-.15-8.96.91-17.9,2.02-26.86,2.96-2.82.3-5.69.26-8.53.47-2.84.21-5.71.35-8.48.86-2.13.38-3.81,1.49-3.51,4.23,9.48.32,18.83-.4,28.85-1.19-2.31,2.67-5.33,2.71-7.86,2.99-12.96,1.46-25.97,2.67-38.95,3.97-.6.06-1.25.04-1.76.26-.48.2-1.18.69-1.15,1.01.04.56.43,1.36.94,1.57.9.35,1.99.44,3.01.45,4.2.04,8.4.02,12.91.02-.81,1.47-1.46,2.66-2.22,4.04,3.68,1.68,7.32.66,10.81.86,3.37.19,6.77.04,10.18.53-8.19,1.85-16.9.13-24.91,2.8-.45,2.17.67,2.85,2.68,2.88,3.31.04,6.63.16,9.94.15,8.74-.01,17.47-.14,26.21-.08,2.38.02,4.74.57,7.13.82,3.28.35,6.56.91,9.84.9,11.43-.03,22.86-.3,34.28-.41,1.76-.02,3.53.3,5.31.83-5.6,1.79-11.53,1.1-17.26,1.82-5.85.73-11.78,1.04-17.67,1.53-.03.35-.06.7-.09,1.04,1.03.18,2.05.52,3.08.52,7.51.02,15.01-.07,22.52-.04,3.7.01,7.48-.49,11.89,1.08-9.23.54-17.6,1.03-26.32,1.54.5,3.69-2.23,4.61-5.67,5-5.22.58-10.43,1.23-15.62,1.93-2.22.3-4.47.64-6.59,1.27-1.24.36-2.25,1.31-3.2,2.45,4.31,1.32,8.58.78,13.16.83-.91,1.93-2.68,1.85-4.12,1.98-4.94.44-9.9.69-14.85,1.11-1.94.17-3.87.5-5.74.95-.51.12-1.14.98-1.08,1.45.06.48.83,1.18,1.39,1.26,1.76.26,3.57.28,6.19.44-5.41,2.24-10.72,1.82-15.63,2.89-4.8,1.05-9.57,2.18-14.3,3.65,3.49,1.27,6.95.58,10.47.2,3.68-.4,7.41-.36,11.35.15-.63.29-1.25.8-1.9.83-5.23.28-10.52.14-15.71.74-14.77,1.69-29.68,1.07-44.47,2.45-28.17,2.63-56.49,3.22-84.77,4.26-5.41.2-10.84.03-16.26.12-1.93.03-3.86.32-5.79.5-.73.07-1.46.26-2.18.23-4.18-.18-8.36-.58-12.53-.6-17.02-.07-34.03,0-51.05-.05-7.35-.02-14.7-.24-22.05-.36-.6,0-1.23-.03-1.8.11-9.03,2.15-18.25.82-27.37.96-23.79.36-47.59.4-71.39.55-16.27.1-32.54.18-48.81.28-10.83.07-21.65.2-32.48.26-22.58.12-45.16.22-67.74.29-10.09.03-20.18-.06-30.27,0-2.35.01-4.7.41-7.05.63-.57,1.95.25,2.93,1.89,3.28,1.44.3,2.98.35,4.47.39,9.93.3,19.87.57,29.8.88.53.02,1.06.23,1.59,1.11-4.79.29-9.58.81-14.37.81-12.34,0-24.68-.19-37.02-.35-8.72-.11-17.45-.12-26.16-.46-14.42-.57-28.85-1.18-43.24-2.15-12.15-.82-24.24-2.22-36.37-3.27-18.57-1.61-37.15-3.12-55.72-4.71-3.59-.31-7.17-.77-10.74-1.23-.97-.12-1.9-.51-2.84-.77,0-.27-.01-.53-.01-.8,1.64-.1,3.3-.37,4.93-.27,7.19.46,14.38,1.03,21.56,1.56.3.02.6.16.89.13,4.54-.39,9.07-.79,13.5-1.19-2.14-1.44-7.49-2.24-17.43-2.89-6.3-.41-12.57-1.16-18.86-1.72-6.02-.53-12.04-1.02-18.07-1.52,0-.3-.02-.6-.03-.91,3.57-.26,7.14-.52,11.37-.83-3.32-3.61-7.81-1.04-11.53-2.76,3.84-1.37,7.86.15,11.33-1.99-2.89-1.62-5.76-.93-8.51-1.07-2.85-.15-5.7-.4-8.52-.81-2.64-.39-5.49,1.17-7.97-.77,12.04,0,23.94-1.39,35.94-1.58l.12-.98c-.68-.35-1.32-.91-2.05-1.01-3.23-.42-6.47-.78-9.72-1.02-6.57-.48-13.02-1.79-19.7-1.63-4.64.11-9.3-.68-13.95-.92-3.48-.18-6.19-1.36-8.42-4.2,1.05-.39,1.88-.94,2.76-1,5.99-.4,11.99-.69,17.99-1.02,4.35-.24,8.59-.45,12.31-3.06,1.43-1.01,3.95-1.04,6-1.2,11.82-.88,23.66-1.7,35.49-2.48,8.39-.55,16.79-1.07,25.19-1.47,2.53-.12,5.09.31,7.64.33,2.84.02,5.7-.05,8.53-.24,1.73-.12,3.12-.81,3.27-3.18-6.94-.36-13.75-.71-20.78-1.07,2.14-2.81,5.3-3.85,8.9-4.21,7.42-.73,14.77-2.06,22.31-1.81,1.24.04,2.5-.26,3.75-.4.02-.26.04-.51.06-.77-.72-.24-1.46-.72-2.16-.68-4.64.24-9.27.59-13.9.89-8.7.56-17.4,1.14-26.1,1.65-4.5.26-9,.58-13.5.54-4.5-.04-9.01-.35-12.98-2.63-.79-.46-2.02-.34-3.05-.5-8.72-1.36-17.45-2.71-26.17-4.11-.36-.06-.65-.44-1.07-.74,1.52-1.47,3.04-.53,4.6-.32,5.45.73,10.93,1.83,16.36-.02,1.18-.4,2.25-1.03,3.31-2-10.7-.08-21.1-1.26-31.47-3.68.93-.21,1.85-.53,2.79-.62,1.5-.14,3.02-.03,4.51-.19,1.82-.2,4.32.48,4.94-1.78.6-2.2-2.15-2.09-3.39-3.03-.1-.07-.13-.2-.26-.39.88-.58,1.77-1.16,3.3-2.17-2.16-.47-3.65-.79-5.56-1.2.48-.71.72-1.64,1.26-1.79,2.14-.59,4.37-.92,6.57-1.38,4.77-1,9.53-2.01,14.84-3.13-1.88-2.05-4.05-2.37-5.65-2.12-2.68.42-5.84-.32-8.03,1.86-.24.24-.99.16-1.49.12-.68-.05-1.49-.48-2.02-.29-6.61,2.45-13.31,1.09-19.93.24-2.03-.26-3.89-1.54-6.29-2.54,4.8-1.77,13.12-3.22,16.8-3.1,2.55.08,4.89-.52,8.12-1.9-5.37-1.38-9.79.37-14.61-.14,2.08-2.48,4.44-4.21,7.59-4.64,4.59-.62,6.51-4.14,10.06-5.83-.07-.29-.15-.58-.22-.87-2.43-.11-4.95.1-7.26-.42-2.25-.51-4.27-1.77-6.51-2.75.77-1.89,1.46-3.58,2.18-5.33-3.64-1.51-4.94,2.85-8.27,2.18-.75-.94-1.57-1.98-2.33-2.94,1.7-5.65,8.15-6.84,12.99-9.57-.13-.24-.27-.47-.4-.7-.66-.06-1.32-.18-1.97-.14-.72.04-1.43.24-2.37.41-.69-1.65-1.32-3.16-2.04-4.88,2.97-1.03,5.88-2.02,8.77-3.05,2.65-.94,6.07.83,8.47-1.77-1.26-1.89-3.41-1.56-5.21-1.75-1.69-.18-3.42-.04-5.32-.68,4.49-1.63,9.07-3.09,13.44-4.93,9.67-4.06,20.28-4.84,30.55-6.67,14.01-2.5,28.1-4.69,42.22-6.63,14.42-1.98,28.88-3.84,43.4-5.14,14.95-1.34,29.99-1.92,44.98-2.88,2.9-.19,5.5.98,8.6.68,4.84-.47,9.84.42,14.78.55,2.68.07,5.39-.13,8.06-.39,5.68-.56,11.33-1.26,17-1.88.74-.08,1.68-.34,2.22-.07,4.46,2.27,9.14.65,13.72.7,1.71.02,3.41,0,5.12,0,.05.26.1.53.14.79-1.72.71-3.43,1.42-5.15,2.13.05.26.1.52.14.78,1.97.11,3.95.16,5.91.33,1.94.17,3.85.61,5.79.66,6.46.15,12.92.32,19.37.21,8.86-.15,17.71-.66,26.57-.81,6.12-.11,12.25.12,18.38.2.6,0,1.21.03,1.8-.02,13.33-1.24,26.67-1.25,40.05-.64,5.03.23,10.1-.22,15.15-.25,11.69-.08,23.39-.1,35.08-.14.6,0,1.22-.04,1.81.04,19.13,2.62,38.46,1.77,57.7,2.24,30.56.75,61.13,1.24,91.69,1.78,8.12.14,16.24.06,24.35.06,3.23,0,3.8.57,3.76,3.31-.01.75.8,1.5,1.34,2.43-.54.04-1.49.11-2.44.18-4.19.31-8.37.6-12.55.93-.59.05-1.28.13-1.71.43-4.11,2.78-8.67,2.12-13.25,1.38-1.88-.3-6.11.73-8.36,1.7-.91.39-2.38.39-3.34.03-3-1.09-6.01-1.55-10.02-1.04-.41.94-.87,1.99-1.5,3.43,2.26.28,4.15.69,6.05.72,21.22.38,42.45.64,63.67,1.1,6.76.15,13.5,1,20.26,1.2,10.68.31,21.37.26,32.05.54,5.4.14,10.78.79,16.18,1.01,11.58.46,23.17.86,34.76,1.17,13.24.36,26.49.61,39.74.88,2.97.06,5.94,0,8.74,0,.95,1.67.48,2.6-1.25,2.87-1.17.18-2.41.04-3.6.17-.74.08-1.44.41-2.11.96,4.9,1.57,10.13.08,15.02,1.03,0,.31.01.62.02.93-1.86.21-3.71.51-5.58.62-6.13.36-12.26.65-18.38.99-1.04.06-2.15.13-3.1.46-5.17,1.83-10.62,1.93-16.02,1.75-9.94-.33-19.77.67-29.63,1.35-3.75.26-7.53.06-11.29.19-1.38.05-2.73.44-4.1.67,0,.28.01.56.02.84.76.22,1.5.61,2.27.63,13.81.43,27.63.8,41.44,1.22,1.95.06,3.91.43,5.85.37,2.68-.07,4.78.89,6.05,2.72.96,1.39,2.07,1.62,3.68,1.61,2.86-.02,5.72.06,8.57.15,2.17.08,4.48-.37,6.03,1.74.4.55,1.93.57,2.97.69,3.58.38,7.18,1.09,10.73.94,4.38-.19,7.5,1.89,10.76,3.64,1.68.9,3.16,1.17,5,1.23,8.72.27,17.44.64,26.16.99.51.02,1.01.16,1.51.24.01.2.02.41.03.61Zm-638.18,8.62c-.69-.05-1.29-.17-1.87-.13-7.04.48-14.07,1.03-21.12,1.44-2.22.13-4.65.34-6.66-.28-2.89-.89-5.1-.14-7.8.74,2.73,1.79,7.78,2.22,19.44,2,6.52-.12,13.05-.15,19.99-.22-.84-1.5-1.39-2.5-1.98-3.55Zm10.82,5.55c4.68,2.3,16.02,2.4,19.41.02-5.55-1.16-10.8-2.41-16.14-3.29-2.28-.38-3.63.89-3.27,3.27Zm-201.45,55.74c4.73,1.36,13.42,1.07,15.75-.43-5.25-.18-10.5-.86-15.75.43Z"/>
  <path class="cls-1" d="m966.52,547.82c.6-1.27.96-2.03,1.51-3.21-4.04-.26-7.71-.59-11.4-.71-9.16-.29-18.32-.55-27.48-.66-3.12-.04-6.24.42-9.36.66-.3.02-.6.09-.89.11-6.43.41-12.98,1.6-19.26.95-4.35-.45-8.14,1.08-12.31.66-4.01-.41-8.11-.05-12.18-.1-2.63-.03-5.25-.2-7.95-.94.8-.25,1.58-.65,2.39-.73,4.02-.38,8.08-.58,12.08-1.05,2.08-.24,4.66.05,5.45-2.57.12-.4,1.53-.76,2.32-.73,9,.41,18,1.03,27,1.34,14.59.51,29.18.89,43.78,1.18,2.41.05,4.84-.6,7.22-1.46-6.8-1.8-13.69-1.75-20.59-1.94-6.91-.18-13.81-.84-20.71-1.28-6.99-.44-13.98-.87-20.97-1.3-.02-.26-.04-.52-.06-.79,1.06-.13,2.11-.38,3.17-.37,12.04.1,24.07.13,36.1.41,9.91.23,19.8.89,29.71,1.13,4.95.12,9.92-.28,14.89-.44,8.56-.28,17.12-.67,25.68-.8,6.46-.1,12.92.11,19.37.23,1.45.03,2.9.26,4.35.39.04.3.09.59.13.89-3.26.73-6.52,1.46-10.22,2.28,1.75,1.67,3.83,1.46,5.59,1.58,17.39,1.11,34.79,2.13,52.19,3.2.21.01.39.29.89.69-.87.37-1.56.79-2.33.97-6.3,1.45-12.69,1.58-19.15,1-2.65-.24-5.34-.33-8-.22-11.4.48-22.77,1.34-34.21.96-7.21-.24-14.44-.25-21.66-.19-4.19.03-8.37.57-12.56.59-4.13.01-8.28,1.02-12.43-.49-1.33-.49-3.22.14-4.85.28-1.59.13-3.18.29-5.24.48Z"/>
  <path class="cls-1" d="m873.21,694.49c-.65.63-.75.8-.86.81-6.14.3-11.88,2.24-17.84,3.25-2.34.4-4.55.2-5.57-2.23-5.67,1.93-11.35,1.95-17.05,1.83-10.2-.2-20.39-.4-30.59-.6-18.04-.36-36.08-.88-54.12-1.03-10.67-.09-21.35.43-32.02.58-4.51.06-9.03-.08-13.54-.21-.94-.03-1.86-.41-2.76-.92,3.22-1.27,6.58-1.2,9.91-1.22,3.44-.02,6.88.09,10.32.19,10.67.32,21.29-.44,31.93-.82,10.06-.35,20.12-.76,30.18-1.04,7.94-.22,15.88-.39,23.82-.37,3.4,0,6.8.78,10.21.82,18.5.23,37,.34,55.5.51.67,0,1.33.24,2.48.45Z"/>
  <path class="cls-1" d="m1037.79,684.43c-2.91,2.06-5.72,2.72-8.72,3.09-4.59.57-9.16,1.32-13.75,1.89-3.72.46-7.45.8-11.19,1.17-6.53.64-13.18.81-19.57,2.02-5.34,1.01-10.63,1.57-16.04,1.63-1.63.02-3.28-.21-4.91-.36-.6-.05-1.19-.29-1.77-.25-7.56.58-15.11,1.3-22.68,1.77-5.93.37-11.88.45-17.97-.09,2.37-.42,4.72-1.01,7.12-1.23,6.86-.62,13.76-.98,20.62-1.65,6.4-.63,12.76-1.64,19.16-2.25,5.23-.5,10.5-.66,15.75-1,10.63-.69,21.27-1.41,31.9-2.1,4.02-.26,8.06-.3,12.05-.74,3.16-.35,6.25-1.17,10-1.91Z"/>
  <path class="cls-1" d="m594.68,691.02c-3.39-.23-6.77-.54-10.16-.67-2.84-.11-5.68-.02-8.52-.02-9.77,0-19.53-.09-29.3.03-6.61.08-13.22.46-19.83.69-.57.02-1.15-.05-1.83-.79,2.28-.34,4.54-.81,6.83-.99,12.24-.95,59.2-.23,62.87.91-.02.28-.04.56-.06.84Z"/>
  <path class="cls-1" d="m876.49,699.32c.74-.91.87-1.24,1.05-1.26,7.76-1.16,15.52-2.29,22.91-3.38,1.48,1.51,2.49,2.54,3.96,4.05-9.32.2-18.3.39-27.92.6Z"/>
  <path class="cls-1" d="m598.69,690.06c1.82-.25,3.26-.62,4.69-.61,6.02.04,12.05.19,18.53.3-5.54,2.3-18.32,2.48-23.22.31Z"/>
  <path class="cls-1" d="m673.47,690.27c-4.03,2.26-7.71.64-11.17.96,3.42-.82,6.84-1.56,11.17-.96Z"/>
  <path class="cls-1" d="m1060.28,579.8c2.05-1.61,4.32-.69,6.52-.61.04.36.09.71.13,1.07-2.14.17-4.28.34-6.42.51-.08-.32-.16-.64-.23-.96Z"/>
  <path class="cls-1" d="m932.98,698.92h-7.49c-.03-.11-.05-.22-.07-.33,2.5-.14,5-.27,7.49-.41.02.25.05.49.07.74Z"/>
  <path class="cls-1" d="m1088.35,595.55c1.58-.06,3.15-.12,4.72-.19.03.24.07.47.1.71-1.58.19-3.16.38-4.74.58-.03-.37-.06-.73-.09-1.1Z"/>
  <path class="cls-1" d="m1094.46,584.6h-3.22c-.02-.17-.03-.34-.05-.51,1.06-.07,2.12-.14,3.18-.21.03.24.06.48.09.73Z"/>
  <path class="cls-1" d="m1096.01,643.28c.85.04,1.71.09,2.57.13-.02.23-.04.46-.06.69-.86-.05-1.71-.09-2.57-.14.02-.23.04-.46.06-.68Z"/>
  <path class="cls-1" d="m689.33,690.33c.96-.07,1.91-.14,2.87-.21.04.24.09.47.13.71-.95.17-1.91.34-2.86.51-.05-.33-.1-.67-.14-1Z"/>
  <path class="cls-1" d="m1069.27,589.4h2.89c-1.06.55-1.41.86-1.8.9-.35.04-.74-.21-1.11-.33.01-.19.02-.38.03-.57Z"/>
</svg>